<svg width="29" height="29" viewBox="0 0 29 29" fill="none" xmlns="http://www.w3.org/2000/svg">
<path d="M28.9053 8.53456C28.8372 6.99621 28.5885 5.93809 28.2318 5.02129C27.864 4.04826 27.2985 3.17734 26.557 2.45367C25.8324 1.71817 24.9554 1.14693 23.994 0.785094C23.0718 0.42844 22.0194 0.179818 20.4808 0.111743C18.9302 0.0384879 18.4381 0.0214691 14.5059 0.0214691C10.5738 0.0214691 10.0816 0.0384879 8.53705 0.106563C6.99839 0.174638 5.94005 0.42326 5.02381 0.779915C4.04984 1.14693 3.17874 1.71299 2.45419 2.45367C1.71853 3.17808 1.14717 4.05492 0.785265 5.01611C0.428538 5.93809 0.179865 6.99029 0.111776 8.52864C0.0385066 10.0788 0.0214844 10.5709 0.0214844 14.5022C0.0214844 18.4336 0.0385066 18.9256 0.106596 20.4699C0.174685 22.0083 0.423358 23.0664 0.780085 23.9832C1.14791 24.9562 1.71927 25.8271 2.45493 26.5515C3.17948 27.287 4.0565 27.8583 5.01789 28.2201C5.94005 28.5768 6.99247 28.8254 8.53187 28.8927C10.0765 28.9608 10.5686 28.9778 14.5015 28.9778C18.4336 28.9778 18.9258 28.9608 20.4704 28.8927C22.0091 28.8246 23.0674 28.576 23.9836 28.2201C25.9301 27.4676 27.4688 25.9292 28.2214 23.9832C28.5782 23.0612 28.8268 22.009 28.8949 20.4699C28.963 18.9256 28.98 18.4336 28.98 14.5022C28.9786 10.5716 28.9734 10.0788 28.9053 8.53456ZM26.2972 20.3574C26.235 21.7715 25.9974 22.5351 25.7991 23.0442C25.3121 24.3058 24.3108 25.3069 23.0496 25.7938C22.5404 25.9914 21.7707 26.2289 20.3623 26.2911C18.8348 26.3591 18.3767 26.3762 14.5119 26.3762C10.6471 26.3762 10.1838 26.3591 8.66139 26.2911C7.24706 26.2289 6.48328 25.9914 5.97409 25.7938C5.34649 25.5615 4.77439 25.1945 4.31109 24.7135C3.83003 24.2436 3.4622 23.6783 3.23055 23.0501C3.03294 22.541 2.79537 21.7715 2.7332 20.3634C2.66511 18.8361 2.64809 18.3781 2.64809 14.5141C2.64809 10.6501 2.66511 10.1869 2.7332 8.66479C2.79537 7.25075 3.03294 6.48713 3.23055 5.97804C3.46294 5.34983 3.83077 4.77859 4.31701 4.31464C4.78624 3.83368 5.35241 3.46592 5.98001 3.23432C6.4892 3.03675 7.2589 2.79923 8.66731 2.73633C10.1949 2.66826 10.653 2.65124 14.5178 2.65124C18.3885 2.65124 18.8459 2.66826 20.3683 2.73633C21.7826 2.79849 22.5464 3.03601 23.0556 3.23432C23.6832 3.46666 24.2553 3.83368 24.7186 4.31464C25.1996 4.78451 25.5674 5.34983 25.7991 5.97804C25.9967 6.48713 26.2343 7.25593 26.2972 8.66479C26.3653 10.192 26.3823 10.6501 26.3823 14.5141C26.3816 18.3781 26.3653 18.8302 26.2972 20.3574Z" fill="#A5A4A3"/>
<path d="M14.5 29C10.6041 29 10.0883 28.9837 8.52963 28.9149C7.14417 28.8542 6.05844 28.6463 5.00898 28.2408C4.05056 27.8805 3.1617 27.3011 2.43862 26.5671C1.6926 25.833 1.12791 24.9665 0.75934 23.9913C0.354507 22.9495 0.145799 21.864 0.0843712 20.4721C0.0162822 18.9079 0 18.3906 0 14.503C0 10.5872 0.0170223 10.0736 0.0902919 8.52789C0.15172 7.14271 0.359688 6.05721 0.765261 5.0087C1.12643 4.04973 1.70519 3.16105 2.43936 2.43886C3.1654 1.69596 4.03205 1.13064 5.01564 0.759186C6.0577 0.354435 7.14342 0.146509 8.53555 0.0843539C10.1009 0.0162788 10.6182 0 14.5059 0C18.421 0 18.9354 0.0170188 20.4815 0.0902735C21.8669 0.151689 22.9527 0.359614 24.0014 0.765105C24.9598 1.12546 25.8487 1.70484 26.5717 2.43886C27.3141 3.16401 27.8795 4.03049 28.251 5.01388C28.6566 6.05573 28.8646 7.14123 28.926 8.53307C28.9933 10.0685 28.9993 10.5709 28.9993 14.5022C28.9993 18.3951 28.983 18.9116 28.9141 20.4706C28.8527 21.8558 28.6447 22.9413 28.2392 23.9906C27.4858 25.9381 25.9367 27.4868 23.9888 28.2401C22.9467 28.6448 21.861 28.8527 20.4689 28.9142C18.9117 28.9837 18.3951 29 14.5 29ZM14.5059 0.0429169C10.6197 0.0429169 10.1023 0.0591958 8.53777 0.128011C7.15009 0.188686 6.0688 0.395872 5.03045 0.799143C4.05278 1.16838 3.1913 1.73 2.46897 2.46846C1.73923 3.18695 1.16343 4.07045 0.804486 5.0235C0.401133 6.0683 0.193906 7.14937 0.133218 8.53011C0.0599479 10.0744 0.0429257 10.5879 0.0429257 14.503C0.0429257 18.3899 0.0592078 18.9071 0.128037 20.4699C0.189465 21.8573 0.396693 22.9391 0.800046 23.9758C1.16639 24.9451 1.72813 25.8064 2.46971 26.5367C3.18908 27.267 4.07276 27.842 5.02526 28.2009C6.07028 28.6049 7.15157 28.8121 8.53259 28.8727C10.0905 28.9415 10.6063 28.9578 14.5007 28.9578C18.3951 28.9578 18.911 28.9415 20.4689 28.8727C21.8566 28.8113 22.9379 28.6049 23.9755 28.2009C25.9123 27.452 27.4525 25.9122 28.2014 23.9758C28.6055 22.931 28.8128 21.8499 28.8734 20.4692C28.9423 18.9108 28.9586 18.3943 28.9586 14.5022C28.9586 10.5716 28.9526 10.0699 28.8853 8.53529C28.8239 7.14789 28.6174 6.06608 28.2133 5.02942C27.8432 4.05121 27.2815 3.18991 26.5436 2.4692C25.8242 1.73888 24.9413 1.16394 23.9881 0.805062C22.9438 0.401051 21.8618 0.193866 20.4807 0.13319C18.9339 0.0599357 18.4203 0.0429169 14.5059 0.0429169ZM14.5118 26.3976C10.704 26.3976 10.1963 26.3813 8.66063 26.3125C7.25148 26.2504 6.4803 26.0136 5.96593 25.8138C5.33241 25.58 4.75439 25.2041 4.29479 24.7283C3.80854 24.2532 3.44368 23.6916 3.20906 23.0575C3.00924 22.544 2.77241 21.7737 2.71024 20.3641C2.63993 18.791 2.62513 18.3248 2.62513 14.5141C2.62513 10.7078 2.64141 10.2002 2.71024 8.66404C2.77241 7.25518 3.00924 6.48415 3.20906 5.97063C3.44442 5.33428 3.82187 4.75638 4.30071 4.29983C4.77437 3.81443 5.33685 3.44889 5.97111 3.21507C6.484 3.01528 7.25444 2.7785 8.66507 2.71561C10.2126 2.64679 10.7225 2.63051 14.5163 2.63051C18.3174 2.63051 18.8259 2.64679 20.3675 2.71561C21.7774 2.77776 22.5478 3.01528 23.0622 3.21507C23.6957 3.44889 24.2737 3.82479 24.7333 4.30057C25.2188 4.77488 25.5844 5.3365 25.8191 5.97137C26.0189 6.48489 26.2557 7.25518 26.3186 8.66478C26.3874 10.2105 26.4037 10.7204 26.4037 14.5148C26.4037 18.4484 26.386 18.8531 26.3186 20.3589C26.2565 21.7678 26.0189 22.5388 25.8191 23.053C25.3306 24.3198 24.3241 25.3262 23.057 25.8145C22.5434 26.0143 21.7729 26.2511 20.3623 26.3132C18.7896 26.3828 18.3241 26.3976 14.5118 26.3976ZM14.517 2.67269C10.724 2.67269 10.2141 2.68897 8.66803 2.75778C7.26406 2.81994 6.49806 3.05598 5.98739 3.25429C5.35831 3.48663 4.80175 3.84846 4.33179 4.33017C3.85591 4.78228 3.48216 5.355 3.24903 5.98543C3.04994 6.49673 2.81459 7.26332 2.75242 8.66552C2.68359 10.2009 2.66731 10.7085 2.66731 14.5141C2.66731 18.324 2.68211 18.7902 2.75242 20.3626C2.81459 21.7663 3.04994 22.5321 3.24903 23.0427C3.48142 23.6709 3.84333 24.2273 4.32513 24.6979C4.78029 25.17 5.35239 25.5415 5.98073 25.7738C6.49214 25.9729 7.25888 26.2082 8.66211 26.2703C10.1978 26.3391 10.7048 26.3554 14.5118 26.3554C18.3233 26.3554 18.7889 26.3406 20.3608 26.2703C21.7648 26.2082 22.5308 25.9729 23.0415 25.7738C24.2967 25.2899 25.2951 24.2917 25.7791 23.0368C25.9774 22.5255 26.2135 21.7589 26.2757 20.3567C26.3423 18.8516 26.3608 18.4469 26.3608 14.5141C26.3608 10.5761 26.343 10.1713 26.2757 8.66552C26.2135 7.26258 25.9774 6.49599 25.7791 5.98543C25.5467 5.35648 25.1848 4.80004 24.703 4.32943C24.2478 3.85734 23.6757 3.48589 23.0474 3.25355C22.536 3.05524 21.7692 2.8192 20.366 2.75704C18.8251 2.68897 18.3174 2.67269 14.517 2.67269Z" fill="#A5A4A3"/>
<path d="M14.506 7.40836C10.5886 7.40836 7.40991 10.5857 7.40991 14.503C7.40991 18.4195 10.5886 21.5976 14.506 21.5976C18.4233 21.5976 21.602 18.4195 21.602 14.503C21.602 10.5857 18.4233 7.40836 14.506 7.40836ZM14.506 19.1047C11.9645 19.1047 9.90256 17.0439 9.90256 14.503C9.90256 11.962 11.9645 9.9005 14.506 9.9005C17.0475 9.9005 19.1086 11.9612 19.1086 14.503C19.1086 17.0439 17.0475 19.1047 14.506 19.1047Z" fill="#A5A4A3"/>
<path d="M14.506 21.619C10.5812 21.619 7.38843 18.4269 7.38843 14.503C7.38843 10.579 10.5812 7.38688 14.506 7.38688C18.4307 7.38688 21.6235 10.579 21.6235 14.503C21.6227 18.4262 18.43 21.619 14.506 21.619ZM14.506 7.4298C10.6049 7.4298 7.43135 10.6027 7.43135 14.503C7.43135 18.4032 10.6049 21.5761 14.506 21.5761C18.407 21.5761 21.5806 18.4032 21.5806 14.503C21.5806 10.6027 18.407 7.4298 14.506 7.4298ZM14.506 19.1261C11.9563 19.1261 9.88182 17.0521 9.88182 14.503C9.88182 11.9538 11.9563 9.87976 14.506 9.87976C17.0556 9.87976 19.1301 11.9538 19.1301 14.503C19.1301 17.0521 17.0556 19.1261 14.506 19.1261ZM14.506 9.92194C11.9793 9.92194 9.924 11.9768 9.924 14.503C9.924 17.0284 11.9793 19.084 14.506 19.084C17.0319 19.084 19.0879 17.0291 19.0879 14.503C19.0872 11.9768 17.0319 9.92194 14.506 9.92194Z" fill="#A5A4A3"/>
<path d="M22.2399 5.65096C21.622 5.65096 21.1209 6.15191 21.1209 6.76976C21.1209 7.38762 21.622 7.88856 22.2399 7.88856C22.8579 7.88856 23.3597 7.38762 23.3597 6.76976C23.3597 6.15191 22.8587 5.65096 22.2399 5.65096Z" fill="#A5A4A3"/>
<path d="M22.24 7.91001C21.6109 7.91001 21.0995 7.3987 21.0995 6.76975C21.0995 6.1408 21.6109 5.62949 22.24 5.62949C22.8691 5.62949 23.3805 6.1408 23.3805 6.76975C23.3812 7.3987 22.8691 7.91001 22.24 7.91001ZM22.24 5.67167C21.6346 5.67167 21.1417 6.16447 21.1417 6.76975C21.1417 7.37503 21.6346 7.86783 22.24 7.86783C22.8454 7.86783 23.3383 7.37503 23.3383 6.76975C23.3383 6.16447 22.8454 5.67167 22.24 5.67167Z" fill="#A5A4A3"/>
</svg>
