<svg width="19" height="19" viewBox="0 0 19 19" fill="none" xmlns="http://www.w3.org/2000/svg">
<path d="M10.2478 14.264H8.76429C8.51649 14.264 8.31491 14.0625 8.31491 13.8147V10.4684H7.44938C7.20158 10.4684 7 10.2668 7 10.0191V8.58519C7 8.33739 7.20158 8.13581 7.44938 8.13581H8.31491V7.41779C8.31491 6.70584 8.53847 6.10012 8.96134 5.66622C9.38612 5.23034 9.97975 5 10.6781 5L11.8095 5.00184C12.0569 5.00226 12.2581 5.20384 12.2581 5.45121V6.78252C12.2581 7.03032 12.0566 7.2319 11.8089 7.2319L11.0471 7.23218C10.8148 7.23218 10.7556 7.27876 10.7429 7.29304C10.7221 7.31671 10.6973 7.38365 10.6973 7.56847V8.13574H11.7516C11.831 8.13574 11.9079 8.15532 11.974 8.19221C12.1165 8.27187 12.2052 8.42249 12.2052 8.58526L12.2046 10.0191C12.2046 10.2668 12.003 10.4684 11.7552 10.4684H10.6973V13.8147C10.6973 14.0625 10.4956 14.264 10.2478 14.264ZM8.85801 13.7209H10.1541V10.2253C10.1541 10.0598 10.2888 9.92526 10.4542 9.92526H11.6615L11.662 8.67891H10.4541C10.2887 8.67891 10.1541 8.54434 10.1541 8.37888V7.56847C10.1541 7.35629 10.1757 7.115 10.3358 6.93363C10.5294 6.71439 10.8343 6.68909 11.0469 6.68909L11.715 6.6888V5.54479L10.6776 5.5431C9.5554 5.5431 8.85801 6.26148 8.85801 7.41779V8.37888C8.85801 8.54427 8.72344 8.67891 8.55805 8.67891H7.5431V9.92526H8.55805C8.72344 9.92526 8.85801 10.0598 8.85801 10.2253V13.7209ZM11.8084 5.54493H11.8085H11.8084Z" fill="#A5A4A3"/>
<rect x="0.5" y="0.5" width="18" height="18" rx="4.5" stroke="#A5A4A3"/>
</svg>
