<svg width="19" height="19" viewBox="0 0 19 19" fill="none" xmlns="http://www.w3.org/2000/svg">
<rect x="0.5" y="0.5" width="18" height="18" rx="4.5" stroke="#A5A4A3"/>
<path d="M9.68723 5.35291C7.10264 5.35291 5 7.45555 5 10.0401C5 12.6247 7.10264 14.7274 9.68723 14.7274C12.2718 14.7274 14.3745 12.6247 14.3745 10.0401C14.3745 7.45555 12.2718 5.35291 9.68723 5.35291ZM9.68723 13.7224C7.65691 13.7224 6.00496 12.0706 6.00496 10.0401C6.00496 8.00981 7.65691 6.35786 9.68723 6.35786C11.7177 6.35786 13.3695 8.00981 13.3695 10.0401C13.3695 12.0706 11.7177 13.7224 9.68723 13.7224Z" fill="#A5A4A3"/>
<path d="M15.0068 3C14.1602 3 13.4717 3.6887 13.4717 4.53511C13.4717 5.38167 14.1602 6.07037 15.0068 6.07037C15.8533 6.07037 16.542 5.38167 16.542 4.53511C16.542 3.68855 15.8533 3 15.0068 3ZM15.0068 4.95636C14.7746 4.95636 14.5855 4.76733 14.5855 4.53511C14.5855 4.30274 14.7746 4.11386 15.0068 4.11386C15.2392 4.11386 15.4282 4.30274 15.4282 4.53511C15.4282 4.76733 15.2392 4.95636 15.0068 4.95636Z" fill="#A5A4A3"/>
</svg>
