<svg version="1.1" id="" xmlns="http://www.w3.org/2000/svg" xmlns:xlink="http://www.w3.org/1999/xlink" x="0px" y="0px"
	 viewBox="0 0 512 512" style="enable-background:new 0 0 512 512;" xml:space="preserve">
<g>
	<g>
		<path d="M467,0H45C20.185,0,0,20.228,0,45v272c0,24.815,20.228,45,45,45h46v105c0,24.813,20.187,45,45,45h240
			c24.813,0,45-20.187,45-45V362h46c24.815,0,45-20.228,45-45V45C512,20.185,491.772,0,467,0z M460.787,30L287.82,202.967
			c-8.5,8.5-19.8,13.18-31.82,13.18s-23.32-4.681-31.82-13.18L51.213,30H460.787z M30,310.787V51.213L159.787,181L30,310.787z
			 M391,467c0,8.271-6.729,15-15,15H136c-8.271,0-15-6.729-15-15V347c0-8.271,6.729-15,15-15h240c8.271,0,15,6.729,15,15V467z
			 M418.42,332c-6.192-17.458-22.865-30-42.42-30H136c-19.555,0-36.228,12.542-42.42,30H51.213L181,202.213l21.967,21.967
			c14.166,14.166,33,21.967,53.033,21.967s38.867-7.801,53.033-21.967L331,202.213L460.787,332H418.42z M482,310.787L352.213,181
			L482,51.213V310.787z"/>
	</g>
</g>
<g>
	<g>
		<path d="M316,362c-24.813,0-45,20.187-45,45c0,5.258,0.915,10.305,2.58,15h-35.16c1.665-4.695,2.58-9.742,2.58-15
			c0-24.813-20.187-45-45-45s-45,20.187-45,45s20.187,45,45,45h120c24.813,0,45-20.187,45-45S340.813,362,316,362z M196,422
			c-8.271,0-15-6.729-15-15s6.729-15,15-15s15,6.729,15,15S204.271,422,196,422z M316,422c-8.271,0-15-6.729-15-15s6.729-15,15-15
			s15,6.729,15,15S324.271,422,316,422z"/>
	</g>
</g>
<g>
</g>
<g>
</g>
<g>
</g>
<g>
</g>
<g>
</g>
<g>
</g>
<g>
</g>
<g>
</g>
<g>
</g>
<g>
</g>
<g>
</g>
<g>
</g>
<g>
</g>
<g>
</g>
<g>
</g>
</svg>
