<svg width="15" height="15" viewBox="0 0 15 15" fill="none" xmlns="http://www.w3.org/2000/svg">
<g opacity="0.5" clip-path="url(#clip0)">
<path d="M14.3837 3.12909H2.65554L2.4812 1.18694C2.45269 0.869336 2.18651 0.625977 1.86764 0.625977H0.616025C0.275803 0.625977 0 0.90178 0 1.242C0 1.58222 0.275803 1.85803 0.616025 1.85803H1.30445C1.68066 6.0494 0.708341 -4.78375 2.01296 9.75162C2.06324 10.3205 2.37064 10.9379 2.90019 11.3574C1.94544 12.5766 2.81779 14.3741 4.37084 14.3741C5.65986 14.3741 6.56903 13.0885 6.12698 11.8709H9.49858C9.05709 13.0869 9.96429 14.3741 11.2547 14.3741C12.2845 14.3741 13.1224 13.5363 13.1224 12.5065C13.1224 11.4766 12.2845 10.6388 11.2547 10.6388H4.37501C3.90706 10.6388 3.49929 10.3565 3.32328 9.94517L13.1682 9.36658C13.4369 9.35079 13.6643 9.16223 13.7297 8.90104L14.9814 3.89452C15.0784 3.5063 14.7845 3.12909 14.3837 3.12909ZM4.37084 13.142C4.02041 13.142 3.73528 12.8569 3.73528 12.5065C3.73528 12.156 4.02041 11.8709 4.37084 11.8709C4.7213 11.8709 5.00643 12.156 5.00643 12.5065C5.00643 12.8569 4.7213 13.142 4.37084 13.142ZM11.2547 13.142C10.9042 13.142 10.6191 12.8569 10.6191 12.5065C10.6191 12.156 10.9042 11.8709 11.2547 11.8709C11.6051 11.8709 11.8903 12.156 11.8903 12.5065C11.8903 12.8569 11.6051 13.142 11.2547 13.142ZM12.6441 8.16322L3.15745 8.72072L2.76613 4.36111H13.5947L12.6441 8.16322Z" fill="black"/>
</g>
<defs>
<clipPath id="clip0">
<rect width="15" height="15" fill="white"/>
</clipPath>
</defs>
</svg>
