<svg width="17" height="17" viewBox="0 0 17 17" fill="none" xmlns="http://www.w3.org/2000/svg">
<g clip-path="url(#clip0)">
<path d="M14.3161 6.46429V5.81071C14.3161 4.24643 13.7625 2.79286 12.7589 1.71429C11.7304 0.607143 10.3161 0 8.77323 0H8.23394C6.69108 0 5.2768 0.607143 4.24823 1.71429C3.24466 2.79286 2.69108 4.24643 2.69108 5.81071V6.46429C1.47323 6.54643 0.505371 7.56071 0.505371 8.8V9.82143C0.505371 11.1107 1.55537 12.1607 2.84466 12.1607H4.16251C4.39823 12.1607 4.59108 11.9679 4.59108 11.7321V6.88571C4.59108 6.65 4.39823 6.45714 4.16251 6.45714H3.54823V5.81071C3.54823 2.98571 5.56251 0.857143 8.23037 0.857143H8.76966C11.4411 0.857143 13.4518 2.98571 13.4518 5.81071V6.45714H12.8375C12.6018 6.45714 12.4089 6.65 12.4089 6.88571V11.7286C12.4089 11.9643 12.6018 12.1571 12.8375 12.1571H13.4375C13.2625 14.3929 11.7232 14.9107 11.0089 15.0286C10.8125 14.425 10.2447 13.9893 9.5768 13.9893H8.50537C7.6768 13.9893 7.0018 14.6643 7.0018 15.4929C7.0018 16.3214 7.6768 17 8.50537 17H9.58037C10.2732 17 10.8554 16.5286 11.0304 15.8929C11.3804 15.8429 11.9339 15.7179 12.4839 15.3964C13.2589 14.9429 14.1768 14.0179 14.2982 12.1536C15.5232 12.0786 16.4947 11.0607 16.4947 9.81786V8.79643C16.4982 7.56071 15.5339 6.54286 14.3161 6.46429ZM3.74108 11.3H2.8518C2.03394 11.3 1.36966 10.6357 1.36966 9.81786V8.79643C1.36966 7.97857 2.03394 7.31429 2.8518 7.31429H3.74108V11.3ZM9.58037 16.1429H8.50537C8.14823 16.1429 7.85894 15.8536 7.85894 15.4964C7.85894 15.1393 8.14823 14.85 8.50537 14.85H9.58037C9.93751 14.85 10.2268 15.1393 10.2268 15.4964C10.2268 15.8536 9.93751 16.1429 9.58037 16.1429ZM15.6411 9.81786C15.6411 10.6357 14.9768 11.3 14.1589 11.3H13.2697V7.31429H14.1589C14.9768 7.31429 15.6411 7.97857 15.6411 8.79643V9.81786Z" fill="#808080"/>
</g>
<defs>
<clipPath id="clip0">
<rect width="17" height="17" fill="#808080"/>
</clipPath>
</defs>
</svg>
