<svg width="19" height="19" viewBox="0 0 19 19" fill="none" xmlns="http://www.w3.org/2000/svg">
<rect x="0.5" y="0.5" width="18" height="18" rx="4.5" stroke="#A5A4A3"/>
<path d="M11.6506 8.96163L7.99404 7.07845C7.78379 6.97017 7.53528 6.97421 7.3292 7.08915C7.12299 7.2042 7 7.40745 7 7.63304V11.3671C7 11.5916 7.12223 11.7945 7.32705 11.9097C7.43401 11.9698 7.55258 12 7.67141 12C7.78025 12 7.88936 11.9747 7.98975 11.9238L11.6464 10.0731C11.8635 9.96313 11.999 9.75073 12 9.5186C12.0009 9.28647 11.867 9.07312 11.6506 8.96163ZM7.96992 10.8974V8.10657L10.7028 9.51409L7.96992 10.8974Z" fill="#A5A4A3"/>
</svg>
