<svg width="22" height="22" viewBox="0 0 22 22" fill="none" xmlns="http://www.w3.org/2000/svg">
<g clip-path="url(#clip0)">
<path d="M20.5372 11.285C20.4486 11.1039 20.4486 10.8961 20.5372 10.7151L21.3577 9.03651C21.8145 8.1019 21.4526 6.98795 20.5336 6.50038L18.8832 5.62468C18.7051 5.53024 18.5831 5.36215 18.5482 5.16367L18.2254 3.32338C18.0457 2.29875 17.0979 1.61022 16.0681 1.75593L14.2182 2.01761C14.0185 2.04579 13.821 1.9816 13.6762 1.84148L12.3334 0.542454C11.5857 -0.180878 10.4144 -0.180921 9.66673 0.542454L8.32388 1.84161C8.17899 1.98177 7.98155 2.04584 7.78191 2.01774L5.93199 1.75606C4.90182 1.61026 3.95437 2.29888 3.77463 3.32351L3.45185 5.16372C3.417 5.36223 3.29493 5.53028 3.11691 5.62477L1.46649 6.50047C0.547567 6.98799 0.1856 8.10203 0.642441 9.03664L1.46292 10.7152C1.55144 10.8963 1.55144 11.104 1.46292 11.2851L0.642398 12.9636C0.185557 13.8982 0.547524 15.0121 1.46645 15.4997L3.11687 16.3754C3.29493 16.4698 3.417 16.6379 3.45185 16.8364L3.77463 18.6767C3.93825 19.6095 4.73807 20.2636 5.65729 20.2635C5.74783 20.2635 5.83969 20.2572 5.93203 20.2441L7.78196 19.9824C7.98146 19.9541 8.17903 20.0184 8.32392 20.1586L9.66673 21.4576C10.0406 21.8193 10.5203 22.0001 11 22.0001C11.4797 22 11.9596 21.8192 12.3334 21.4576L13.6762 20.1586C13.8211 20.0184 14.0186 19.9544 14.2182 19.9824L16.0681 20.2441C17.0984 20.3899 18.0457 19.7013 18.2254 18.6767L18.5483 16.8365C18.5831 16.6379 18.7052 16.4699 18.8832 16.3754L20.5336 15.4997C21.4526 15.0122 21.8145 13.8981 21.3577 12.9635L20.5372 11.285ZM19.9389 14.3788L18.2885 15.2545C17.7623 15.5337 17.4014 16.0304 17.2985 16.6171L16.9757 18.4574C16.9149 18.8041 16.5944 19.0369 16.2458 18.9877L14.3959 18.726C13.8059 18.6425 13.2222 18.8323 12.794 19.2465L11.4511 20.5455C11.1982 20.7902 10.8019 20.7902 10.5489 20.5455L9.2061 19.2465C8.84422 18.8964 8.37114 18.7067 7.87726 18.7067C7.78677 18.7067 7.69555 18.7131 7.6042 18.726L5.75427 18.9877C5.40597 19.0369 5.08521 18.804 5.02437 18.4574L4.70155 16.6171C4.59859 16.0303 4.23774 15.5336 3.71151 15.2544L2.06109 14.3787C1.75017 14.2138 1.62771 13.8369 1.78227 13.5207L2.60279 11.8421C2.86438 11.3069 2.86438 10.6931 2.60279 10.1579L1.78227 8.4793C1.62771 8.16309 1.75017 7.78621 2.06109 7.62126L3.71151 6.74556C4.2377 6.46631 4.59859 5.96968 4.7015 5.3829L5.02428 3.54264C5.08513 3.19597 5.40558 2.96309 5.75419 3.01233L7.60411 3.27401C8.19385 3.35749 8.77784 3.1677 9.20602 2.75353L10.5489 1.4545C10.8018 1.20984 11.1981 1.20984 11.4511 1.4545L12.7939 2.75353C13.2221 3.16774 13.806 3.35749 14.3958 3.27401L16.2457 3.01233C16.5941 2.96304 16.9148 3.19597 16.9756 3.54264L17.2984 5.38294C17.4014 5.96972 17.7622 6.46639 18.2884 6.74556L19.9389 7.62126C20.2498 7.78621 20.3722 8.16309 20.2177 8.4793L19.3972 10.1578C19.1356 10.693 19.1356 11.3069 19.3972 11.8421L20.2177 13.5206C20.3723 13.8369 20.2498 14.2138 19.9389 14.3788Z" fill="#6A6A6A"/>
<path d="M15.6357 6.36434C15.3879 6.11659 14.9862 6.11659 14.7384 6.36434L6.36435 14.7385C6.11659 14.9862 6.11659 15.3879 6.36435 15.6357C6.48822 15.7596 6.6506 15.8215 6.81294 15.8215C6.97527 15.8215 7.13769 15.7596 7.26153 15.6357L15.6356 7.26161C15.8835 7.01381 15.8835 6.61214 15.6357 6.36434Z" fill="#6A6A6A"/>
<path d="M8.46226 5.2901C7.17956 5.2901 6.13599 6.33368 6.13599 7.61637C6.13599 8.89907 7.17956 9.94264 8.46226 9.94264C9.74496 9.94264 10.7885 8.89907 10.7885 7.61637C10.7885 6.33368 9.74496 5.2901 8.46226 5.2901ZM8.46226 8.67374C7.87922 8.67374 7.40489 8.19941 7.40489 7.61633C7.40489 7.03329 7.87922 6.55896 8.46226 6.55896C9.0453 6.55896 9.51967 7.03329 9.51967 7.61633C9.51963 8.19941 9.0453 8.67374 8.46226 8.67374Z" fill="#6A6A6A"/>
<path d="M13.5377 12.0574C12.255 12.0574 11.2114 13.1009 11.2114 14.3836C11.2114 15.6663 12.255 16.7099 13.5377 16.7099C14.8204 16.7099 15.864 15.6663 15.864 14.3836C15.864 13.1009 14.8204 12.0574 13.5377 12.0574ZM13.5377 15.441C12.9547 15.441 12.4803 14.9667 12.4803 14.3836C12.4803 13.8006 12.9546 13.3263 13.5377 13.3263C14.1207 13.3263 14.5951 13.8006 14.5951 14.3836C14.5951 14.9667 14.1207 15.441 13.5377 15.441Z" fill="#6A6A6A"/>
</g>
<defs>
<clipPath id="clip0">
<rect width="22" height="22" fill="white"/>
</clipPath>
</defs>
</svg>
