<svg width="21" height="21" viewBox="0 0 21 21" fill="none" xmlns="http://www.w3.org/2000/svg">
<g clip-path="url(#clip0)">
<path fill="#808080" d="M18.9004 18.4771H2.09988C0.942019 18.4771 0 17.5351 0 16.3771C0 15.6085 0.419413 14.9019 1.0947 14.5333L8.53691 10.3362C8.79127 10.1926 9.11342 10.2825 9.25695 10.537C9.40027 10.7916 9.31046 11.1137 9.05589 11.2573L1.60785 15.4571C1.26588 15.644 1.05728 15.9951 1.05728 16.3769C1.05728 16.9517 1.52507 17.4194 2.09988 17.4194H18.9004C19.4752 17.4194 19.9426 16.9517 19.9426 16.3769C19.9426 15.9951 19.734 15.6441 19.3985 15.4607L12.0206 11.3007C11.9817 11.2904 11.9442 11.2767 11.9139 11.2598C11.4258 10.9903 11.123 10.478 11.123 9.92179C11.123 9.27829 11.5298 8.70057 12.1356 8.48372C12.1686 8.47185 12.2027 8.4634 12.2375 8.45847C13.1992 8.0809 13.8401 7.14482 13.8401 6.10655C13.8401 4.71353 12.707 3.58051 11.3144 3.58051C9.92167 3.58051 8.78855 4.71363 8.78855 6.10655C8.78855 6.39863 8.55209 6.63519 8.25991 6.63519C7.96773 6.63519 7.73127 6.39852 7.73127 6.10655C7.73127 4.13058 9.33882 2.52313 11.3145 2.52313C13.2902 2.52313 14.8976 4.13048 14.8976 6.10655C14.8976 7.61432 13.9448 8.96961 12.5269 9.47915C12.4979 9.48961 12.4679 9.49755 12.4379 9.50238C12.2817 9.58174 12.1805 9.74347 12.1805 9.92179C12.1805 10.0706 12.2511 10.2093 12.3684 10.2979C12.4035 10.3082 12.4359 10.3212 12.4634 10.3364L19.9118 14.5365C20.5809 14.9021 21.0001 15.6087 21.0001 16.3773C21 17.5351 20.0584 18.4771 18.9004 18.4771Z"/>
</g>
<defs>
<clipPath id="clip0">
<rect width="21" height="21" fill="#808080"/>
</clipPath>
</defs>
</svg>
