<svg width="19" height="19" viewBox="0 0 19 19" fill="none" xmlns="http://www.w3.org/2000/svg">
<path fill-rule="evenodd" clip-rule="evenodd" d="M9.71175 6C7.24444 6.00058 6 7.56521 6 8.87091C6 9.11184 6.03175 9.34523 6.09651 9.56004C6.24254 10.0489 6.55937 10.4442 7.06286 10.6265C7.18286 10.6689 7.28952 10.6283 7.32317 10.5116C7.3473 10.4309 7.40381 10.2277 7.42984 10.1424C7.46349 10.0274 7.45079 9.98734 7.35492 9.8869C7.22921 9.75569 7.13206 9.60068 7.07302 9.41142C7.03365 9.28543 7.01143 9.14552 7.01143 8.98528C7.01143 7.82356 7.99429 6.78377 9.56889 6.78377C10.9638 6.78377 11.7302 7.53792 11.7302 8.54463C11.7302 8.84188 11.6971 9.1281 11.6349 9.39342C11.4178 10.3142 10.8476 10.9882 10.0851 10.9882C9.54095 10.9882 9.13397 10.5917 9.26413 10.1035C9.33905 9.82536 9.44635 9.53856 9.53841 9.26743C9.64 8.9696 9.72317 8.69267 9.72317 8.47264C9.72317 8.09701 9.4946 7.78292 9.02286 7.78292C8.4673 7.78292 8.02032 8.29092 8.02032 8.97193C8.02032 9.10023 8.03492 9.21518 8.05524 9.31504C8.10413 9.55307 8.18603 9.69938 8.18603 9.69938C8.18603 9.69938 7.61714 11.8295 7.51746 12.2034C7.31937 12.9471 7.48762 13.858 7.50159 13.9497C7.50984 14.0037 7.58984 14.0171 7.62476 13.9758C7.67619 13.916 8.33841 13.1938 8.56317 12.4722C8.62667 12.2672 8.92825 11.2089 8.92825 11.2089C9.10921 11.5131 9.63619 11.7807 10.1975 11.7807C11.5575 11.7807 12.5606 10.8878 12.8863 9.58152C12.9606 9.28369 13 8.96496 13 8.63113C13 7.2697 11.6946 6 9.71175 6Z" fill="#A5A4A3"/>
<rect x="0.5" y="0.5" width="18" height="18" rx="4.5" stroke="#A5A4A3"/>
</svg>
