<svg width="22" height="22" viewBox="0 0 22 22" fill="none" xmlns="http://www.w3.org/2000/svg">
<path d="M21.4613 2.7386C21.1023 2.37961 20.6708 2.20013 20.1667 2.20013H1.83332C1.32917 2.20013 0.897697 2.37957 0.538466 2.7386C0.179435 3.09767 0 3.52914 0 4.03333V17.9665C0 18.4708 0.179435 18.9023 0.538466 19.2613C0.897697 19.6203 1.32917 19.7999 1.83332 19.7999H20.1667C20.6708 19.7999 21.1023 19.6203 21.4613 19.2613C21.8203 18.9023 22 18.4708 22 17.9665V4.03333C22 3.52914 21.8203 3.09767 21.4613 2.7386ZM20.5332 17.9667C20.5332 18.0662 20.4969 18.1519 20.4244 18.2247C20.3519 18.2969 20.2659 18.3332 20.1667 18.3332H1.83332C1.73407 18.3332 1.64811 18.2969 1.57554 18.2244C1.50302 18.1516 1.4667 18.0659 1.4667 17.9665V11H20.5332V17.9667H20.5332ZM20.5332 6.59985H1.46666V4.03317C1.46666 3.93388 1.50286 3.84812 1.5755 3.7754C1.64811 3.70304 1.73407 3.66672 1.83328 3.66672H20.1667C20.2658 3.66672 20.3518 3.70288 20.4243 3.7754C20.4969 3.84812 20.5331 3.93388 20.5331 4.03317V6.59985H20.5332Z" fill="#6A6A6A"/>
<path d="M5.8667 15.3998H2.93341V16.8666H5.8667V15.3998Z" fill="#6A6A6A"/>
<path d="M11.7334 15.3998H7.33344V16.8666H11.7334V15.3998Z" fill="#6A6A6A"/>
</svg>
