<svg width="12" height="12" viewBox="0 0 12 12" fill="none" xmlns="http://www.w3.org/2000/svg">
<g opacity="0.3">
<path d="M9.51562 5.67188H2.48438C1.9028 5.67188 1.42969 6.14498 1.42969 6.72656V10.9453C1.42969 11.5269 1.9028 12 2.48438 12H9.51562C10.0972 12 10.5703 11.5269 10.5703 10.9453V6.72656C10.5703 6.14498 10.0972 5.67188 9.51562 5.67188ZM6.35156 9.12295V10.2422C6.35156 10.4365 6.19432 10.5938 6 10.5938C5.80568 10.5938 5.64844 10.4365 5.64844 10.2422V9.12295C5.24006 8.97738 4.94531 8.5908 4.94531 8.13281C4.94531 7.55123 5.41842 7.07812 6 7.07812C6.58158 7.07812 7.05469 7.55123 7.05469 8.13281C7.05469 8.5908 6.75994 8.97738 6.35156 9.12295Z" fill="#808080"/>
<path d="M6 0C3.86796 0 2.13281 1.73515 2.13281 3.86719V4.96875H4.24219V3.86719C4.24219 2.89765 5.03046 2.10938 6 2.10938C6.96954 2.10938 7.75781 2.89765 7.75781 3.86719V4.96875H9.86719V3.86719C9.86719 1.73515 8.13204 0 6 0Z" fill="#808080"/>
</g>
</svg>
