<svg width="32" height="32" viewBox="0 0 32 32" fill="none" xmlns="http://www.w3.org/2000/svg">
<path d="M29.7599 14.4602L28.9312 11.1455C29.1577 11.0973 29.3277 10.8963 29.3277 10.6555V10.1211C29.3277 8.96072 28.3837 8.01672 27.2234 8.01672H23.4489V6.91435C23.4489 6.34335 22.9844 5.87885 22.4134 5.87885H3.17325C2.60225 5.87885 2.13775 6.34335 2.13775 6.91435V16C2.13775 16.2767 2.36206 16.501 2.63881 16.501C2.9155 16.501 3.13987 16.2767 3.13987 16V6.91435C3.13987 6.89591 3.15481 6.88097 3.17325 6.88097H22.4133C22.4318 6.88097 22.4467 6.89591 22.4467 6.91435V16.0001C22.4467 16.2768 22.671 16.5012 22.9478 16.5012C23.2244 16.5012 23.4488 16.2768 23.4488 16.0001V15.4321H29.3594C29.3599 15.4321 29.3603 15.4322 29.3607 15.4322C29.3612 15.4322 29.3616 15.4322 29.3621 15.4322C30.0894 15.4327 30.7069 15.91 30.9191 16.5678H29.3611C29.0844 16.5678 28.86 16.7922 28.86 17.0689V18.1378C28.86 19.0035 29.5642 19.7077 30.4299 19.7077H30.9978V21.9123H29.6877C29.2573 20.6696 28.076 19.7745 26.6888 19.7745C25.3016 19.7745 24.1203 20.6696 23.6899 21.9123H23.4487V18.1377C23.4487 17.861 23.2244 17.6367 22.9476 17.6367C22.6709 17.6367 22.4466 17.861 22.4466 18.1377V21.9122H12.0511C11.6207 20.6695 10.4394 19.7743 9.05219 19.7743C7.665 19.7743 6.48362 20.6695 6.05331 21.9122H3.17325C3.15481 21.9122 3.13987 21.8972 3.13987 21.8788V20.7765H5.31106C5.58775 20.7765 5.81213 20.5522 5.81213 20.2754C5.81213 19.9987 5.58781 19.7743 5.31106 19.7743H0.501063C0.224375 19.7743 0 19.9987 0 20.2754C0 20.5522 0.224313 20.7765 0.501063 20.7765H2.13781V21.8788C2.13781 22.4498 2.60231 22.9143 3.17331 22.9143H5.87981C5.87969 22.9254 5.87894 22.9365 5.87894 22.9477C5.87894 24.6974 7.3025 26.1209 9.05219 26.1209C10.8019 26.1209 12.2254 24.6974 12.2254 22.9477C12.2254 22.9364 12.2247 22.9254 12.2246 22.9143H23.5164C23.5163 22.9254 23.5156 22.9365 23.5156 22.9477C23.5156 24.6974 24.9391 26.1209 26.6888 26.1209C28.4385 26.1209 29.8621 24.6974 29.8621 22.9477C29.8621 22.9364 29.8613 22.9254 29.8612 22.9143H31.4989C31.7756 22.9143 31.9999 22.69 31.9999 22.4132V17.0688C32 15.7493 31.0264 14.653 29.7599 14.4602ZM23.4489 9.01878H27.2234C27.8312 9.01878 28.3257 9.51328 28.3257 10.1211V10.1545H23.4489V9.01878ZM23.4489 14.43V11.1565H27.9011L28.7194 14.43H23.4489ZM9.05219 25.119C7.855 25.119 6.881 24.145 6.881 22.9478C6.881 21.7505 7.855 20.7766 9.05219 20.7766C10.2494 20.7766 11.2234 21.7505 11.2234 22.9478C11.2234 24.145 10.2494 25.119 9.05219 25.119ZM26.6889 25.119C25.4918 25.119 24.5177 24.145 24.5177 22.9478C24.5177 21.7505 25.4918 20.7766 26.6889 20.7766C27.8861 20.7766 28.8601 21.7505 28.8601 22.9478C28.8601 24.145 27.8861 25.119 26.6889 25.119ZM30.9979 18.7056H30.4301C30.1169 18.7056 29.8622 18.4508 29.8622 18.1377V17.5698H30.9979V18.7056H30.9979Z" fill="#6A6A6A"/>
<path d="M9.05216 21.9123C8.48116 21.9123 8.01666 22.3768 8.01666 22.9478C8.01666 23.5188 8.48116 23.9833 9.05216 23.9833C9.62316 23.9833 10.0877 23.5188 10.0877 22.9478C10.0877 22.3768 9.62316 21.9123 9.05216 21.9123Z" fill="#6A6A6A"/>
<path d="M26.6889 21.9123C26.1179 21.9123 25.6534 22.3768 25.6534 22.9478C25.6534 23.5188 26.1179 23.9833 26.6889 23.9833C27.2599 23.9833 27.7244 23.5188 27.7244 22.9478C27.7244 22.3768 27.2599 21.9123 26.6889 21.9123Z" fill="#6A6A6A"/>
<path d="M20.81 19.7745H13.3278C13.0511 19.7745 12.8267 19.9988 12.8267 20.2756C12.8267 20.5523 13.051 20.7767 13.3278 20.7767H20.81C21.0867 20.7767 21.3111 20.5523 21.3111 20.2756C21.3111 19.9988 21.0868 19.7745 20.81 19.7745Z" fill="#6A6A6A"/>
<path d="M7.98329 17.6367H1.56991C1.29322 17.6367 1.06885 17.861 1.06885 18.1378C1.06885 18.4145 1.29316 18.6388 1.56991 18.6388H7.98329C8.25998 18.6388 8.48435 18.4145 8.48435 18.1378C8.48435 17.861 8.25998 17.6367 7.98329 17.6367Z" fill="#6A6A6A"/>
<path d="M17.4232 10.8356C17.2276 10.64 16.9103 10.64 16.7146 10.8357L12.2589 15.2914L9.94096 12.9734C9.74527 12.7777 9.42802 12.7777 9.2324 12.9734C9.03671 13.1691 9.03671 13.4863 9.2324 13.682L11.9046 16.3542C12.0025 16.4521 12.1307 16.501 12.2589 16.501C12.3871 16.501 12.5154 16.4521 12.6131 16.3542L17.4231 11.5442C17.6188 11.3485 17.6188 11.0313 17.4232 10.8356Z" fill="#6A6A6A"/>
</svg>
