<svg width="16" height="16" viewBox="0 0 16 16" fill="none" xmlns="http://www.w3.org/2000/svg">
<path d="M13.5236 2.23885C12.0798 0.795027 10.1606 0 8.11864 0C8.11852 0 8.11804 0 8.11792 0C7.10799 0.000120258 6.12379 0.19566 5.19287 0.581329C4.26183 0.966997 3.42772 1.52463 2.71351 2.23885C1.26981 3.68255 0.474781 5.60211 0.474781 7.64386C0.474781 8.86147 0.768572 10.0715 1.32525 11.1496L0.0404086 14.8201C-0.0501459 15.0791 0.0139518 15.3605 0.208049 15.5544C0.34382 15.6903 0.522524 15.7625 0.706279 15.7625C0.785048 15.7625 0.864659 15.7493 0.942346 15.7221L4.61287 14.4374C5.69098 14.994 6.90102 15.2878 8.11864 15.2878C10.1604 15.2878 12.0798 14.4927 13.5236 13.049C14.9673 11.6053 15.7625 9.68572 15.7625 7.64398C15.7625 5.60211 14.9675 3.68255 13.5236 2.23885ZM12.8699 12.3953C11.6008 13.6645 9.91337 14.3633 8.11864 14.3633C7.02068 14.3633 5.92994 14.0917 4.96426 13.5778C4.78917 13.4847 4.5822 13.4687 4.3964 13.5337L1.06164 14.7009L2.22887 11.3661C2.29393 11.1801 2.27781 10.9731 2.18473 10.7981C1.67087 9.83268 1.39921 8.74193 1.39921 7.64386C1.39921 5.84912 2.09815 4.16166 3.36723 2.89257C4.6362 1.62361 6.32342 0.924666 8.11804 0.924425H8.11864C9.91349 0.924425 11.6008 1.62337 12.8699 2.89257C14.1391 4.16166 14.8381 5.849 14.8381 7.64386C14.8381 9.43871 14.1391 11.1262 12.8699 12.3953Z" fill="#808080"/>
<path d="M10.9595 8.32673C10.6079 7.9751 10.0357 7.9751 9.68404 8.32673L9.29945 8.71132C8.34448 8.19096 7.5717 7.41818 7.05122 6.46321L7.43581 6.07862C7.78756 5.72699 7.78756 5.1548 7.43581 4.80316L6.39942 3.76678C6.04779 3.41514 5.4756 3.41514 5.12396 3.76678L4.2949 4.59584C3.82 5.07074 3.79631 5.88717 4.22816 6.89482C4.60312 7.7697 5.28932 8.73128 6.16035 9.60231C7.03138 10.4733 7.99296 11.1595 8.86784 11.5345C9.34659 11.7397 9.78205 11.842 10.1583 11.842C10.5741 11.842 10.9175 11.7171 11.1668 11.4678L11.9959 10.6386V10.6387C12.1663 10.4683 12.2601 10.2418 12.2601 10.001C12.2601 9.75997 12.1663 9.53352 11.9959 9.36324L10.9595 8.32673ZM10.5131 10.814C10.3776 10.9496 9.96075 10.9971 9.23211 10.6849C8.46269 10.3551 7.60393 9.73844 6.81407 8.94859C6.02422 8.15873 5.40765 7.30009 5.0779 6.53067C4.76559 5.80203 4.81309 5.38509 4.94863 5.24956L5.76181 4.43638L6.76621 5.44089L6.28482 5.92241C6.06715 6.14008 6.0146 6.47018 6.15422 6.74389C6.78713 7.98496 7.7777 8.97553 9.01877 9.60844C9.2926 9.74806 9.6227 9.69563 9.84037 9.47784L10.3218 8.99645L11.3263 10.001L10.5131 10.814Z" fill="#808080"/>
</svg>
